<svg xmlns="http://www.w3.org/2000/svg" xmlns:xlink="http://www.w3.org/1999/xlink" width="512" height="512" viewBox="0 0 512 512">
  <defs>
    <linearGradient id="logo-a" x1="51.262%" x2="51.262%" y1="4.214%" y2="96.018%">
      <stop offset="0%" stop-color="#FFC532"/>
      <stop offset="100%" stop-color="#E02050"/>
    </linearGradient>
    <linearGradient id="logo-b" x1="51.262%" x2="51.262%" y1="4.214%" y2="96.018%">
      <stop offset="0%" stop-color="#F4BC2E"/>
      <stop offset="100%" stop-color="#B8153E"/>
    </linearGradient>
    <path id="logo-d" d="M51.7007589,308.399985 L266.499208,308.399985 C270.420858,308.399985 273.599984,304.639177 273.599984,299.999986 C273.599984,295.360794 270.420858,291.599986 266.499208,291.599986 L51.7007589,291.599986 C47.779109,291.599986 44.5999837,295.360794 44.5999837,299.999986 C44.5999837,304.639177 47.779109,308.399985 51.7007589,308.399985 Z"/>
    <filter id="logo-c" width="108.3%" height="213.1%" x="-4.1%" y="-32.7%" filterUnits="objectBoundingBox">
      <feOffset dy="4" in="SourceAlpha" result="shadowOffsetOuter1"/>
      <feGaussianBlur in="shadowOffsetOuter1" result="shadowBlurOuter1" stdDeviation="2.5"/>
      <feColorMatrix in="shadowBlurOuter1" values="0 0 0 0 0   0 0 0 0 0   0 0 0 0 0  0 0 0 0.5 0"/>
    </filter>
    <filter id="logo-e" width="107%" height="195.2%" x="-3.5%" y="-23.8%" filterUnits="objectBoundingBox">
      <feGaussianBlur in="SourceAlpha" result="shadowBlurInner1" stdDeviation="2.5"/>
      <feOffset dy="1" in="shadowBlurInner1" result="shadowOffsetInner1"/>
      <feComposite in="shadowOffsetInner1" in2="SourceAlpha" k2="-1" k3="1" operator="arithmetic" result="shadowInnerInner1"/>
      <feColorMatrix in="shadowInnerInner1" values="0 0 0 0 1   0 0 0 0 1   0 0 0 0 1  0 0 0 0.533326049 0"/>
    </filter>
    <path id="logo-g" d="M8.48372042,278.399985 L265.116263,278.399985 C269.801693,278.399985 273.599984,274.639177 273.599984,269.999986 C273.599984,265.360794 269.801693,261.599986 265.116263,261.599986 L8.48372042,261.599986 C3.79829101,261.599986 0,265.360794 0,269.999986 C0,274.639177 3.79829101,278.399985 8.48372042,278.399985 Z"/>
    <filter id="logo-f" width="106.9%" height="213.1%" x="-3.5%" y="-32.7%" filterUnits="objectBoundingBox">
      <feOffset dy="4" in="SourceAlpha" result="shadowOffsetOuter1"/>
      <feGaussianBlur in="shadowOffsetOuter1" result="shadowBlurOuter1" stdDeviation="2.5"/>
      <feColorMatrix in="shadowBlurOuter1" values="0 0 0 0 0   0 0 0 0 0   0 0 0 0 0  0 0 0 0.5 0"/>
    </filter>
    <filter id="logo-h" width="105.8%" height="195.2%" x="-2.9%" y="-23.8%" filterUnits="objectBoundingBox">
      <feGaussianBlur in="SourceAlpha" result="shadowBlurInner1" stdDeviation="2.5"/>
      <feOffset dy="1" in="shadowBlurInner1" result="shadowOffsetInner1"/>
      <feComposite in="shadowOffsetInner1" in2="SourceAlpha" k2="-1" k3="1" operator="arithmetic" result="shadowInnerInner1"/>
      <feColorMatrix in="shadowInnerInner1" values="0 0 0 0 1   0 0 0 0 1   0 0 0 0 1  0 0 0 0.533326049 0"/>
    </filter>
    <path id="logo-j" d="M8.48372042,248.399985 L265.116263,248.399985 C269.801693,248.399985 273.599984,244.639177 273.599984,239.999986 C273.599984,235.360794 269.801693,231.599986 265.116263,231.599986 L8.48372042,231.599986 C3.79829101,231.599986 0,235.360794 0,239.999986 C0,244.639177 3.79829101,248.399985 8.48372042,248.399985 Z"/>
    <filter id="logo-i" width="106.9%" height="213.1%" x="-3.5%" y="-32.7%" filterUnits="objectBoundingBox">
      <feOffset dy="4" in="SourceAlpha" result="shadowOffsetOuter1"/>
      <feGaussianBlur in="shadowOffsetOuter1" result="shadowBlurOuter1" stdDeviation="2.5"/>
      <feColorMatrix in="shadowBlurOuter1" values="0 0 0 0 0   0 0 0 0 0   0 0 0 0 0  0 0 0 0.5 0"/>
    </filter>
    <filter id="logo-k" width="105.8%" height="195.2%" x="-2.9%" y="-23.8%" filterUnits="objectBoundingBox">
      <feGaussianBlur in="SourceAlpha" result="shadowBlurInner1" stdDeviation="2.5"/>
      <feOffset dy="1" in="shadowBlurInner1" result="shadowOffsetInner1"/>
      <feComposite in="shadowOffsetInner1" in2="SourceAlpha" k2="-1" k3="1" operator="arithmetic" result="shadowInnerInner1"/>
      <feColorMatrix in="shadowInnerInner1" values="0 0 0 0 1   0 0 0 0 1   0 0 0 0 1  0 0 0 0.533326049 0"/>
    </filter>
    <path id="logo-m" d="M63.2138266,62.2418681 L31.4449807,192.266033 C30.7383757,195.15515 31.5840838,198.205756 33.6748763,200.309628 C35.7656688,202.4135 38.7973099,203.264498 41.6684657,202.553473 L170.85614,170.557553 C173.562189,169.885039 175.764502,167.912824 176.742389,165.286303 L198.879191,106.253971 C199.836763,106.253971 200.822498,106.395671 201.695578,106.395671 C214.256901,106.445951 225.60509,98.8587741 230.426322,87.1868575 C235.247555,75.5149409 232.587431,62.0688325 223.691561,53.144711 L179.868578,9.10426786 C170.625799,-0.173323212 156.595026,-2.62488646 144.785096,2.97421542 C132.975167,8.57331729 125.920771,21.0213849 127.145813,34.100195 L68.4523065,56.3187969 C65.8421135,57.3028006 63.8821597,59.5188912 63.2138266,62.2418681 Z M148.015241,21.1204505 C153.514234,15.588728 162.428104,15.588728 167.927097,21.1204505 L211.75008,65.1892337 C217.086742,70.749253 217.01042,79.5871821 211.578542,85.0530404 C206.146663,90.5188986 197.363677,90.5956978 191.838223,85.2256515 L191.838223,85.2256515 L148.015241,41.1568683 C142.517908,35.623475 142.517908,26.6538439 148.015241,21.1204505 Z M133.285537,49.9139449 C134.148327,51.0645246 135.08938,52.1535061 136.101924,53.173051 L179.896742,97.2701742 C180.910681,98.2882611 181.992837,99.2351526 183.135587,100.10418 L162.519634,155.168903 L67.044113,178.804508 L104.671044,140.998877 C114.265553,145.589429 125.693154,143.602913 133.201045,136.039367 L133.201045,136.039367 C142.259297,126.969314 143.118374,112.505845 135.198228,102.414681 C127.278082,92.3235165 113.096694,89.812852 102.229325,96.5778854 C91.3619566,103.342919 87.2635728,117.232904 92.7013991,128.869334 L55.1026319,166.731645 L78.5912999,70.658864 L133.285537,49.9139449 Z M107.149465,117.930073 C107.242599,114.003914 110.065319,110.684377 113.905735,109.984657 C117.746151,109.284937 121.546378,111.397778 123.001698,115.04181 C124.457018,118.685843 123.166548,122.857276 119.912916,125.026269 C116.659284,127.195261 112.338741,126.76434 109.571558,123.994845 C108.007418,122.417884 107.143919,120.271188 107.177629,118.043433 L107.149465,117.930073 Z"/>
    <filter id="logo-l" width="109.4%" height="109.4%" x="-4.7%" y="-2.7%" filterUnits="objectBoundingBox">
      <feOffset dy="4" in="SourceAlpha" result="shadowOffsetOuter1"/>
      <feGaussianBlur in="shadowOffsetOuter1" result="shadowBlurOuter1" stdDeviation="2.5"/>
      <feColorMatrix in="shadowBlurOuter1" values="0 0 0 0 0   0 0 0 0 0   0 0 0 0 0  0 0 0 0.5 0"/>
    </filter>
    <filter id="logo-n" width="107.9%" height="107.9%" x="-4%" y="-2%" filterUnits="objectBoundingBox">
      <feGaussianBlur in="SourceAlpha" result="shadowBlurInner1" stdDeviation="2.5"/>
      <feOffset dy="1" in="shadowBlurInner1" result="shadowOffsetInner1"/>
      <feComposite in="shadowOffsetInner1" in2="SourceAlpha" k2="-1" k3="1" operator="arithmetic" result="shadowInnerInner1"/>
      <feColorMatrix in="shadowInnerInner1" values="0 0 0 0 1   0 0 0 0 1   0 0 0 0 1  0 0 0 0.533326049 0"/>
    </filter>
  </defs>
  <g fill="none" fill-rule="evenodd">
    <circle cx="256" cy="256" r="246" fill="url(#logo-a)" stroke="url(#logo-b)" stroke-width="20"/>
    <g fill-rule="nonzero" transform="translate(119 101)">
      <use fill="#000" filter="url(#logo-c)" xlink:href="#logo-d"/>
      <use fill="#F4F4F4" xlink:href="#logo-d"/>
      <use fill="#000" filter="url(#logo-e)" xlink:href="#logo-d"/>
      <use fill="#000" filter="url(#logo-f)" xlink:href="#logo-g"/>
      <use fill="#F4F4F4" xlink:href="#logo-g"/>
      <use fill="#000" filter="url(#logo-h)" xlink:href="#logo-g"/>
      <use fill="#000" filter="url(#logo-i)" xlink:href="#logo-j"/>
      <use fill="#F4F4F4" xlink:href="#logo-j"/>
      <use fill="#000" filter="url(#logo-k)" xlink:href="#logo-j"/>
      <g transform="matrix(-1 0 0 1 264 0)">
        <use fill="#000" filter="url(#logo-l)" xlink:href="#logo-m"/>
        <use fill="#F4F4F4" xlink:href="#logo-m"/>
        <use fill="#000" filter="url(#logo-n)" xlink:href="#logo-m"/>
      </g>
    </g>
  </g>
</svg>
